<?xml version="1.0" encoding="UTF-8"?>
<svg version="1.1" xmlns="http://www.w3.org/2000/svg" width="600" height="210">
<path d="M0 0 C1.21771906 -0.01043099 2.43543812 -0.02086198 3.69005775 -0.03160906 C5.04326232 -0.02296062 6.39646451 -0.01393398 7.74966431 -0.00457001 C9.18570272 -0.00917757 10.62173643 -0.01552951 12.05776024 -0.02347898 C16.00887593 -0.04021566 19.9596064 -0.03190648 23.91072369 -0.01953411 C28.1698286 -0.01050358 32.42886613 -0.02444339 36.68795776 -0.0354538 C45.03347371 -0.05326502 53.37884598 -0.04938748 61.72436762 -0.03780323 C68.50533384 -0.0287794 75.28625972 -0.02754035 82.06723022 -0.0318985 C83.03135908 -0.03251143 83.99548795 -0.03312436 84.98883283 -0.03375587 C86.94727978 -0.03503474 88.90572672 -0.03633159 90.86417365 -0.03764623 C109.2399847 -0.04905966 127.615716 -0.03592638 145.99151397 -0.01444477 C161.76787095 0.0034269 177.54411023 0.00032301 193.32046509 -0.01811981 C211.62932843 -0.03951307 229.93812183 -0.04796095 248.24699593 -0.03567076 C250.19834517 -0.03439652 252.14969443 -0.03313904 254.1010437 -0.0318985 C255.54129506 -0.03097285 255.54129506 -0.03097285 257.01064241 -0.03002849 C263.78554419 -0.02657095 270.56040171 -0.03241262 277.33529663 -0.04181671 C285.58867819 -0.05302094 293.84190753 -0.05002995 302.09527159 -0.02869374 C306.30843454 -0.01816199 310.52134347 -0.01409742 314.7345047 -0.02729034 C318.58854687 -0.03917645 322.44209865 -0.03271492 326.29609609 -0.01138014 C327.69307253 -0.00689791 329.09009009 -0.00921657 330.48704028 -0.01888329 C332.38075662 -0.03098619 334.27458839 -0.01622132 336.16827393 0 C337.22172815 0.00064941 338.27518238 0.00129882 339.36055946 0.00196791 C342.79020453 0.63334798 343.975004 1.77461303 346.08413696 4.50336456 C346.58750153 7.40507507 346.58750153 7.40507507 346.59207153 10.84186554 C346.60899048 12.79773338 346.60899048 12.79773338 346.62625122 14.79311371 C346.61847416 16.23624642 346.61028149 17.67937694 346.60171509 19.12250519 C346.60713575 20.64368612 346.6142581 22.1648618 346.62295532 23.68602753 C346.64119847 27.81622361 346.63411723 31.94602026 346.62143898 36.07622337 C346.61131638 40.39720364 346.6207026 44.71814956 346.62698364 49.03913116 C346.63426222 56.2956634 346.62466688 63.55203282 346.60562134 70.80854034 C346.58385212 79.19972293 346.59090335 87.59051677 346.61292696 95.98168993 C346.63107502 103.18435511 346.63364221 110.38690322 346.62317228 117.58958387 C346.61693406 121.89223319 346.61611067 126.19469974 346.62931824 130.49733734 C346.64086757 134.54237134 346.63286826 138.58690384 346.60974121 142.63188362 C346.60444914 144.11697621 346.60597646 145.60211096 346.61479187 147.08718681 C346.62570935 149.11306381 346.60959568 151.13903297 346.59207153 153.16486359 C346.58980938 154.86607487 346.58980938 154.86607487 346.58750153 156.60165405 C345.95469953 160.24952348 344.96237571 161.22603396 342.08413696 163.50336456 C339.36055946 164.00476122 339.36055946 164.00476122 336.16827393 164.00672913 C334.95055487 164.01716012 333.73283581 164.0275911 332.47821617 164.03833818 C331.12501161 164.02968974 329.77180942 164.02066311 328.41860962 164.01129913 C326.9825712 164.01590669 325.54653749 164.02225863 324.11051369 164.03020811 C320.159398 164.04694479 316.20866752 164.0386356 312.25755024 164.02626324 C307.99844532 164.0172327 303.7394078 164.03117252 299.48031616 164.04218292 C291.13480021 164.05999415 282.78942795 164.0561166 274.44390631 164.04453236 C267.66294008 164.03550853 260.8820142 164.03426948 254.1010437 164.03862762 C253.13691484 164.03924056 252.17278598 164.03985349 251.17944109 164.04048499 C249.22099414 164.04176386 247.2625472 164.04306071 245.30410028 164.04437536 C226.92828923 164.05578878 208.55255793 164.04265551 190.17675996 164.02117389 C174.40040297 164.00330222 158.6241637 164.00640612 142.84780884 164.02484894 C124.5389455 164.0462422 106.23015209 164.05469008 87.921278 164.04239988 C85.96992875 164.04112565 84.01857949 164.03986817 82.06723022 164.03862762 C80.62697886 164.03770197 80.62697886 164.03770197 79.15763152 164.03675762 C72.38272974 164.03330008 65.60787222 164.03914175 58.83297729 164.04854584 C50.57959574 164.05975006 42.3263664 164.05675907 34.07300234 164.03542286 C29.85983938 164.02489112 25.64693046 164.02082655 21.43376923 164.03401947 C17.57972705 164.04590557 13.72617528 164.03944405 9.87217784 164.01810926 C8.47520139 164.01362703 7.07818384 164.01594569 5.68123364 164.02561241 C3.78751731 164.03771531 1.89368553 164.02295045 0 164.00672913 C-1.05345423 164.00607972 -2.10690845 164.00543031 -3.19228554 164.00476122 C-6.62193061 163.37338114 -7.80673007 162.23211609 -9.91586304 159.50336456 C-10.4192276 156.60165405 -10.4192276 156.60165405 -10.42379761 153.16486359 C-10.4350769 151.86095169 -10.4463562 150.55703979 -10.45797729 149.21361542 C-10.45020023 147.7704827 -10.44200757 146.32735218 -10.43344116 144.88422394 C-10.43886183 143.36304301 -10.44598418 141.84186733 -10.4546814 140.3207016 C-10.47292454 136.19050551 -10.4658433 132.06070887 -10.45316505 127.93050575 C-10.44304245 123.60952549 -10.45242867 119.28857956 -10.45870972 114.96759796 C-10.46598829 107.71106573 -10.45639296 100.4546963 -10.43734741 93.19818878 C-10.4155782 84.8070062 -10.42262943 76.41621236 -10.44465303 68.0250392 C-10.4628011 60.82237402 -10.46536829 53.61982591 -10.45489836 46.41714525 C-10.44866013 42.11449594 -10.44783675 37.81202938 -10.46104431 33.50939178 C-10.47259364 29.46435779 -10.46459433 25.41982529 -10.44146729 21.3748455 C-10.43617522 19.88975292 -10.43770254 18.40461817 -10.44651794 16.91954231 C-10.45743542 14.89366532 -10.44132176 12.86769616 -10.42379761 10.84186554 C-10.42228951 9.70772469 -10.4207814 8.57358383 -10.4192276 7.40507507 C-9.37146853 1.36513163 -5.68946188 0.00350731 0 0 Z " fill="#FDD705" transform="translate(228.91586303710938,22.49663543701172)"/>
<path d="M0 0 C3.3125 0.625 3.3125 0.625 4.70458984 2.23510742 C5.16043457 2.95545166 5.6162793 3.6757959 6.0859375 4.41796875 C6.60663818 5.2387793 7.12733887 6.05958984 7.66381836 6.90527344 C10.60033117 11.74945421 13.44277802 16.64241137 16.25 21.5625 C17.24242138 23.2923456 18.23484765 25.02218843 19.22756958 26.75186157 C20.25014091 28.53439872 21.27140134 30.31768197 22.29248047 32.10107422 C25.45219911 37.61689788 28.63361722 43.12020746 31.8125 48.625 C33.06259875 50.79160969 34.31259851 52.9582765 35.5625 55.125 C36.18125 56.1975 36.8 57.27 37.4375 58.375 C58.0625 94.125 58.0625 94.125 59.93896484 97.37768555 C61.18391282 99.53549803 62.4290289 101.69321353 63.67431641 103.85083008 C66.87802651 109.40216592 70.0784363 114.95536541 73.2734375 120.51171875 C74.24990234 122.20808472 74.24990234 122.20808472 75.24609375 123.9387207 C76.52372827 126.15899628 77.79981264 128.38016471 79.07421875 130.60229492 C81.74751418 135.24943549 84.43677172 139.87411774 87.2890625 144.4140625 C87.72234863 145.10798096 88.15563477 145.80189941 88.60205078 146.5168457 C89.71088153 148.27625907 90.83887996 150.02355453 91.96875 151.76953125 C93.3125 154.625 93.3125 154.625 93.15625 157.38671875 C92.3125 159.625 92.3125 159.625 90.3125 161.625 C87.92316201 161.8244292 85.64934308 161.89874349 83.25868225 161.88569641 C82.52405067 161.88952196 81.7894191 161.89334751 81.03252596 161.89728898 C78.55815198 161.90765043 76.08400869 161.90362094 73.60961914 161.8996582 C71.84081303 161.90400295 70.0720088 161.9091853 68.3032074 161.91514587 C63.48920725 161.9285728 58.67528542 161.92911045 53.86127019 161.92658257 C49.84764101 161.92551534 45.83402785 161.93038986 41.82040209 161.935188 C32.35429567 161.94629599 22.88822893 161.94671335 13.42211914 161.94067383 C3.64502414 161.93463196 -6.13192702 161.94694752 -15.90899748 161.9682439 C-24.29288877 161.98583658 -32.67673418 161.99186495 -41.06064326 161.98860615 C-46.07252666 161.9867894 -51.08430748 161.9894684 -56.09617424 162.00332069 C-60.80836028 162.01585653 -65.52032147 162.01399538 -70.23250389 162.00090981 C-71.96474533 161.99853517 -73.69700238 162.00131027 -75.42922592 162.00953293 C-77.7886478 162.01992759 -80.14730498 162.01195923 -82.50669861 161.9992218 C-83.19696654 162.00659609 -83.88723447 162.01397037 -84.59841961 162.02156812 C-87.44566653 161.98908885 -89.27992207 161.91131567 -91.64540958 160.24960613 C-92.6875 158.625 -92.6875 158.625 -92.54174805 156.25708008 C-91.62792593 153.4414424 -90.47923807 151.08729246 -89.01953125 148.51171875 C-88.46338135 147.52373291 -87.90723145 146.53574707 -87.33422852 145.51782227 C-86.72893311 144.46006592 -86.1236377 143.40230957 -85.5 142.3125 C-84.872146 141.20382568 -84.24429199 140.09515137 -83.59741211 138.95288086 C-78.22556301 129.49534342 -72.75054021 120.09798349 -67.25 110.71484375 C-63.5553669 104.40929581 -59.89897319 98.08205564 -56.25 91.75 C-55.31619507 90.12976929 -55.31619507 90.12976929 -54.36352539 88.47680664 C-53.10173174 86.28703666 -51.84009466 84.09717645 -50.57861328 81.90722656 C-46.82672057 75.39542104 -43.07028992 68.88623046 -39.31274414 62.37768555 C-36.18105558 56.95217068 -33.05428925 51.52393334 -29.9375 46.08984375 C-23.48858104 34.85745969 -16.97112354 23.6716441 -10.3125 12.5625 C-9.66345703 11.4789624 -9.01441406 10.3954248 -8.34570312 9.27905273 C-3.2102521 0.74657026 -3.2102521 0.74657026 0 0 Z " fill="#FDD800" transform="translate(117.6875,23.375)"/>
<path d="M0 0 C38 0 38 0 47 4 C54.29196966 11.76241932 52.29488755 27.10698266 52.265625 37.09375 C52.26697584 38.73319557 52.26891984 40.37264075 52.27142334 42.01208496 C52.27435492 45.43111015 52.27014079 48.85003011 52.26074219 52.26904297 C52.24934885 56.6228244 52.25591893 60.97635912 52.26788712 65.33013153 C52.27515916 68.71044734 52.27279342 72.09070591 52.26763153 75.47102356 C52.26630977 77.07518036 52.26789026 78.67934258 52.27259064 80.28349304 C52.32988935 105.32624682 52.32988935 105.32624682 47 111 C38 115 38 115 0 115 C0 77.05 0 39.1 0 0 Z " fill="#1B1A18" transform="translate(229,46)"/>
<path d="M0 0 C8.25 0 16.5 0 25 0 C26.14416544 6.29801781 27.28511775 12.59644567 28.41796875 18.89648438 C28.80411411 21.03842489 29.19211694 23.18003143 29.58203125 25.32128906 C30.14294113 28.40343162 30.6971069 31.48672306 31.25 34.5703125 C31.42499023 35.52366486 31.59998047 36.47701721 31.78027344 37.45925903 C32.59380026 42.03304556 33.21745358 46.33154339 33 51 C33.66 51 34.32 51 35 51 C35 34.17 35 17.34 35 0 C40.94 0 46.88 0 53 0 C53 37.95 53 75.9 53 115 C45.41 115 37.82 115 30 115 C27.22416881 102.50875964 24.54990339 90.00660837 22.09356689 77.44900513 C21.82379816 76.07114904 21.55244666 74.69360185 21.27947998 73.31637573 C20.89361361 71.36553476 20.51503568 69.41325654 20.13671875 67.4609375 C19.91717529 66.33478027 19.69763184 65.20862305 19.47143555 64.04833984 C19.04642496 61.30018752 18.90600398 58.77336722 19 56 C18.34 56 17.68 56 17 56 C17 75.47 17 94.94 17 115 C11.39 115 5.78 115 0 115 C0 77.05 0 39.1 0 0 Z " fill="#1A1918" transform="translate(347,46)"/>
<path d="M0 0 C3.3125 0.625 3.3125 0.625 4.70458984 2.23510742 C5.16043457 2.95545166 5.6162793 3.6757959 6.0859375 4.41796875 C6.60663818 5.2387793 7.12733887 6.05958984 7.66381836 6.90527344 C10.60033117 11.74945421 13.44277802 16.64241137 16.25 21.5625 C17.24242138 23.2923456 18.23484765 25.02218843 19.22756958 26.75186157 C20.25014091 28.53439872 21.27140134 30.31768197 22.29248047 32.10107422 C25.45219911 37.61689788 28.63361722 43.12020746 31.8125 48.625 C33.06259875 50.79160969 34.31259851 52.9582765 35.5625 55.125 C36.18125 56.1975 36.8 57.27 37.4375 58.375 C58.0625 94.125 58.0625 94.125 59.93896484 97.37768555 C61.18391282 99.53549803 62.4290289 101.69321353 63.67431641 103.85083008 C66.87802651 109.40216592 70.0784363 114.95536541 73.2734375 120.51171875 C74.24990234 122.20808472 74.24990234 122.20808472 75.24609375 123.9387207 C76.52372827 126.15899628 77.79981264 128.38016471 79.07421875 130.60229492 C81.74751418 135.24943549 84.43677172 139.87411774 87.2890625 144.4140625 C87.72234863 145.10798096 88.15563477 145.80189941 88.60205078 146.5168457 C89.71088153 148.27625907 90.83887996 150.02355453 91.96875 151.76953125 C93.3125 154.625 93.3125 154.625 93.15625 157.38671875 C92.3125 159.625 92.3125 159.625 90.3125 161.625 C87.92316201 161.8244292 85.64934308 161.89874349 83.25868225 161.88569641 C82.52405067 161.88952196 81.7894191 161.89334751 81.03252596 161.89728898 C78.55815198 161.90765043 76.08400869 161.90362094 73.60961914 161.8996582 C71.84081303 161.90400295 70.0720088 161.9091853 68.3032074 161.91514587 C63.48920725 161.9285728 58.67528542 161.92911045 53.86127019 161.92658257 C49.84764101 161.92551534 45.83402785 161.93038986 41.82040209 161.935188 C32.35429567 161.94629599 22.88822893 161.94671335 13.42211914 161.94067383 C3.64502414 161.93463196 -6.13192702 161.94694752 -15.90899748 161.9682439 C-24.29288877 161.98583658 -32.67673418 161.99186495 -41.06064326 161.98860615 C-46.07252666 161.9867894 -51.08430748 161.9894684 -56.09617424 162.00332069 C-60.80836028 162.01585653 -65.52032147 162.01399538 -70.23250389 162.00090981 C-71.96474533 161.99853517 -73.69700238 162.00131027 -75.42922592 162.00953293 C-77.7886478 162.01992759 -80.14730498 162.01195923 -82.50669861 161.9992218 C-83.19696654 162.00659609 -83.88723447 162.01397037 -84.59841961 162.02156812 C-87.44566653 161.98908885 -89.27992207 161.91131567 -91.64540958 160.24960613 C-92.6875 158.625 -92.6875 158.625 -92.54174805 156.25708008 C-91.62792593 153.4414424 -90.47923807 151.08729246 -89.01953125 148.51171875 C-88.46338135 147.52373291 -87.90723145 146.53574707 -87.33422852 145.51782227 C-86.72893311 144.46006592 -86.1236377 143.40230957 -85.5 142.3125 C-84.872146 141.20382568 -84.24429199 140.09515137 -83.59741211 138.95288086 C-78.22556301 129.49534342 -72.75054021 120.09798349 -67.25 110.71484375 C-63.5553669 104.40929581 -59.89897319 98.08205564 -56.25 91.75 C-55.31619507 90.12976929 -55.31619507 90.12976929 -54.36352539 88.47680664 C-53.10173174 86.28703666 -51.84009466 84.09717645 -50.57861328 81.90722656 C-46.82672057 75.39542104 -43.07028992 68.88623046 -39.31274414 62.37768555 C-36.18105558 56.95217068 -33.05428925 51.52393334 -29.9375 46.08984375 C-23.48858104 34.85745969 -16.97112354 23.6716441 -10.3125 12.5625 C-9.66345703 11.4789624 -9.01441406 10.3954248 -8.34570312 9.27905273 C-3.2102521 0.74657026 -3.2102521 0.74657026 0 0 Z M-0.6875 16.625 C-1.09887207 17.34751953 -1.51024414 18.07003906 -1.93408203 18.81445312 C-9.71645782 32.47622288 -17.52748573 46.11854638 -25.46972656 59.68823242 C-29.70007428 66.91935616 -33.88699662 74.17459535 -38.0625 81.4375 C-43.24023686 90.43970926 -48.49874753 99.38995942 -53.8125 108.3125 C-60.54153594 119.6127272 -67.06417666 131.01792756 -73.47900391 142.49902344 C-74.46384077 144.23154049 -75.4966694 145.93670618 -76.54296875 147.6328125 C-77.85355055 149.531104 -77.85355055 149.531104 -77.6875 151.625 C-26.2075 151.625 25.2725 151.625 78.3125 151.625 C76.88431199 147.34043596 75.79951477 144.4339992 73.58203125 140.703125 C73.03417969 139.77371094 72.48632812 138.84429687 71.921875 137.88671875 C71.32890625 136.89285156 70.7359375 135.89898437 70.125 134.875 C68.84957902 132.71394367 67.57486327 130.552471 66.30078125 128.390625 C65.64158691 127.27494141 64.98239258 126.15925781 64.30322266 125.00976562 C61.10332672 119.56907919 57.95886433 114.09675896 54.8125 108.625 C47.69265924 96.2641909 40.51066173 83.94031905 33.3125 71.625 C25.23350998 57.80267376 17.18356262 43.96458828 9.19750977 30.08837891 C8.3050354 28.53836182 8.3050354 28.53836182 7.39453125 26.95703125 C6.87093018 26.04671143 6.3473291 25.1363916 5.80786133 24.19848633 C5.31439209 23.34923584 4.82092285 22.49998535 4.3125 21.625 C3.53652466 20.22254028 3.53652466 20.22254028 2.74487305 18.79174805 C2.03584839 17.71920776 2.03584839 17.71920776 1.3125 16.625 C0.6525 16.625 -0.0075 16.625 -0.6875 16.625 Z " fill="#21211C" transform="translate(117.6875,23.375)"/>
<path d="M0 0 C38 0 38 0 47 4 C52.30329817 10.62912271 51.21943913 18.90500073 51.24023438 26.96142578 C51.24990855 29.22856785 51.28093954 31.49479037 51.3125 33.76171875 C51.43807569 50.68114421 51.43807569 50.68114421 45.3125 57 C44.549375 57.66 43.78625 58.32 43 59 C43.8971875 59.0928125 43.8971875 59.0928125 44.8125 59.1875 C48.01323731 60.37634529 48.56475308 61.93379066 50 65 C52.64769917 72.95294024 52.41627306 81.1443433 52.5625 89.4375 C52.60685106 91.64511619 52.65391201 93.85261016 52.70530701 96.06007385 C52.75119758 98.06523973 52.78905875 100.07058473 52.82641602 102.07592773 C53.0175815 106.39745068 53.52230093 110.70070838 54 115 C47.07 115 40.14 115 33 115 C29.83677619 108.67355238 30.98444712 98.90301886 30.78515625 91.9140625 C30.74777344 90.6564209 30.71039062 89.3987793 30.671875 88.10302734 C30.59922376 85.54369292 30.53535612 82.9840934 30.48046875 80.42431641 C30.43019531 78.64420166 30.43019531 78.64420166 30.37890625 76.828125 C30.3538501 75.7546582 30.32879395 74.68119141 30.30297852 73.57519531 C30.25050087 70.83740755 30.25050087 70.83740755 28 69 C25.69 69 23.38 69 21 69 C20.67 84.18 20.34 99.36 20 115 C13.4 115 6.8 115 0 115 C0 77.05 0 39.1 0 0 Z " fill="#1A1A18" transform="translate(514,46)"/>
<path d="M0 0 C0.98548828 -0.01998047 1.97097656 -0.03996094 2.98632812 -0.06054688 C9.44161809 -0.05626902 15.12200722 0.72717069 20.5625 4.4375 C26.25410838 12.03369329 25.70560278 21.30408684 25.625 30.375 C25.62048828 31.34501953 25.61597656 32.31503906 25.61132812 33.31445312 C25.59963169 35.68882906 25.58169941 38.06317288 25.5625 40.4375 C19.2925 40.4375 13.0225 40.4375 6.5625 40.4375 C6.125 33.125 6.125 33.125 5.99438477 30.8347168 C5.80414809 27.83155127 5.51849652 25.30548955 4.5625 22.4375 C1.9225 22.1075 -0.7175 21.7775 -3.4375 21.4375 C-4.34733785 25.3152753 -4.5640894 28.91355208 -4.56689453 32.89257812 C-4.57004669 34.17741089 -4.57319885 35.46224365 -4.57644653 36.78601074 C-4.57465653 38.18025751 -4.57260552 39.57450397 -4.5703125 40.96875 C-4.57098666 42.4069419 -4.57195762 43.84513369 -4.57321167 45.2833252 C-4.57468336 48.29257292 -4.5725511 51.3017909 -4.56787109 54.31103516 C-4.56217412 58.1610679 -4.56545596 62.01103091 -4.57144356 65.8610611 C-4.57506345 68.82937136 -4.57390401 71.79766519 -4.57131577 74.76597595 C-4.57065045 76.18529773 -4.57146106 77.60462102 -4.57379532 79.02394104 C-4.57634525 81.01010101 -4.57176729 82.99626624 -4.56689453 84.98242188 C-4.56609894 86.11095581 -4.56530334 87.23948975 -4.56448364 88.40222168 C-4.44756291 91.19696722 -4.07521336 93.71953315 -3.4375 96.4375 C-0.7975 96.1075 1.8425 95.7775 4.5625 95.4375 C5.54293964 92.49618109 5.67871202 90.61248335 5.66015625 87.55078125 C5.65532227 86.1440918 5.65532227 86.1440918 5.65039062 84.70898438 C5.64201172 83.73251953 5.63363281 82.75605469 5.625 81.75 C5.62048828 80.76193359 5.61597656 79.77386719 5.61132812 78.75585938 C5.59954303 76.31634526 5.58309011 73.87695311 5.5625 71.4375 C4.2425 71.1075 2.9225 70.7775 1.5625 70.4375 C1.5625 63.8375 1.5625 57.2375 1.5625 50.4375 C9.4825 50.4375 17.4025 50.4375 25.5625 50.4375 C25.63174362 57.05411287 25.6913659 63.66944498 25.72729492 70.28613281 C25.74228852 72.53227014 25.7626902 74.77837866 25.78881836 77.02441406 C25.82561931 80.27155715 25.84232116 83.51830985 25.85546875 86.765625 C25.87095261 87.75363098 25.88643646 88.74163696 25.90238953 89.75958252 C25.90432614 97.9651481 25.21588686 106.75224047 20.3125 113.5625 C14.07779861 117.81343277 7.49249944 117.77608928 0.1875 117.75 C-0.70710938 117.76611328 -1.60171875 117.78222656 -2.5234375 117.79882812 C-8.45979949 117.80314234 -14.11099784 117.25640009 -19.4375 114.4375 C-27.82871093 105.43577547 -25.60037259 91.33822667 -25.60546875 79.84765625 C-25.60868804 78.13569614 -25.6120526 76.42373629 -25.61555481 74.71177673 C-25.62151842 71.13540001 -25.62339749 67.55904736 -25.62280273 63.98266602 C-25.62270108 59.4224851 -25.6363689 54.86245977 -25.65357494 50.30231571 C-25.66474454 46.77021081 -25.66672045 43.23814301 -25.66619301 39.70602226 C-25.66736505 38.02567444 -25.67174273 36.3453254 -25.67952538 34.66499519 C-25.78191931 10.28279452 -25.78191931 10.28279452 -19.4375 3.4375 C-12.90146899 0.32935329 -7.17338077 -0.05140533 0 0 Z " fill="#1A1918" transform="translate(433.4375,44.5625)"/>
<path d="M0 0 C1.25554687 -0.00128906 2.51109375 -0.00257812 3.8046875 -0.00390625 C4.46178711 -0.00181152 5.11888672 0.0002832 5.79589844 0.00244141 C7.80411335 0.00779016 9.81210459 0.00249559 11.8203125 -0.00390625 C13.07585937 -0.00261719 14.33140625 -0.00132813 15.625 0 C16.78644531 0.00112793 17.94789063 0.00225586 19.14453125 0.00341797 C21.8125 0.1328125 21.8125 0.1328125 22.8125 1.1328125 C23.08655948 2.80249601 23.30013001 4.48215152 23.48925781 6.16357422 C23.61335526 7.24744919 23.7374527 8.33132416 23.86531067 9.44804382 C23.9974144 10.64081436 24.12951813 11.8335849 24.265625 13.0625 C24.40622849 14.29978348 24.54683197 15.53706696 24.69169617 16.81184387 C25.07357351 20.17859791 25.45167615 23.54573429 25.82798386 26.91311264 C26.21798037 30.39656424 26.61206358 33.87955266 27.00610352 37.36254883 C27.08446347 38.05523267 27.16282343 38.74791651 27.24355793 39.46159077 C27.40205222 40.8626242 27.56056083 42.26365601 27.71908379 43.6646862 C27.95770338 45.77547676 28.19569867 47.88633704 28.43360901 49.99720764 C29.38961288 58.46903049 30.37285611 66.93722861 31.38671875 75.40234375 C31.5048996 76.39411621 31.62308044 77.38588867 31.74484253 78.40771484 C32.40441298 83.94460722 32.40441298 83.94460722 33.07507324 89.48016357 C33.37681138 91.95103243 33.67148817 94.42265533 33.96484375 96.89453125 C34.09556526 97.93756157 34.09556526 97.93756157 34.22892761 99.00166321 C34.86968693 104.48464625 34.8125 109.50144983 34.8125 115.1328125 C28.2125 115.1328125 21.6125 115.1328125 14.8125 115.1328125 C14.1525 110.5128125 13.4925 105.8928125 12.8125 101.1328125 C8.5225 100.8028125 4.2325 100.4728125 -0.1875 100.1328125 C-0.5175 105.0828125 -0.8475 110.0328125 -1.1875 115.1328125 C-7.4575 115.1328125 -13.7275 115.1328125 -20.1875 115.1328125 C-17.92958113 91.61282429 -15.19030515 68.14138531 -12.33666992 44.68676758 C-11.67946218 39.27716812 -11.03905538 33.86602922 -10.42022705 28.45191956 C-10.05921337 25.29365785 -9.69520304 22.13574349 -9.33129883 18.97781372 C-9.15281962 17.42076096 -8.97588624 15.86353019 -8.80053711 14.30612183 C-8.55578525 12.13330621 -8.30577471 9.96115374 -8.0546875 7.7890625 C-7.91144043 6.52900391 -7.76819336 5.26894531 -7.62060547 3.97070312 C-6.85003795 -1.07838192 -4.68377909 0.00454862 0 0 Z " fill="#1B1A18" transform="translate(305.1875,45.8671875)"/>
<path d="M0 0 C12.87 0 25.74 0 39 0 C39 6.93 39 13.86 39 21 C32.73 21 26.46 21 20 21 C20.33 28.59 20.66 36.18 21 44 C27.93 44.495 27.93 44.495 35 45 C35 51.6 35 58.2 35 65 C30.38 65.33 25.76 65.66 21 66 C20.67 75.24 20.34 84.48 20 94 C26.27 94 32.54 94 39 94 C39 100.93 39 107.86 39 115 C26.13 115 13.26 115 0 115 C0 77.05 0 39.1 0 0 Z " fill="#191918" transform="translate(468,46)"/>
<path d="M0 0 C191.4 0 382.8 0 580 0 C580 63.69 580 127.38 580 193 C388.6 193 197.2 193 0 193 C0 129.31 0 65.62 0 0 Z M2 2 C2 64.37 2 126.74 2 191 C192.08 191 382.16 191 578 191 C578 128.63 578 66.26 578 2 C387.92 2 197.84 2 2 2 Z " fill="#161615" transform="translate(10,8)"/>
<path d="M0 0 C0.66 0 1.32 0 2 0 C2.40089844 0.70680908 2.80179688 1.41361816 3.21484375 2.1418457 C10.8070293 15.51317362 18.45290714 28.84629669 26.3125 42.0625 C26.9717749 43.17270508 27.6310498 44.28291016 28.31030273 45.42675781 C30.79836294 49.61567076 33.28658432 53.80446223 35.78320312 57.98828125 C37.38398004 60.67523401 38.97459426 63.36792729 40.5625 66.0625 C41.26983276 67.24114624 41.26983276 67.24114624 41.99145508 68.44360352 C43.05643473 70.26072118 44.03833597 72.12615354 45 74 C44.67 74.66 44.34 75.32 44 76 C42.68 76 41.36 76 40 76 C39.443125 74.2984375 39.443125 74.2984375 38.875 72.5625 C35.6879477 64.18722303 30.86014009 57.51426965 23 53 C22.34 53 21.68 53 21 53 C20.70754395 53.52956299 20.41508789 54.05912598 20.11376953 54.60473633 C18.78552194 57.00806889 17.45528352 59.41029381 16.125 61.8125 C15.66480469 62.64587891 15.20460937 63.47925781 14.73046875 64.33789062 C14.06337891 65.54155273 14.06337891 65.54155273 13.3828125 66.76953125 C12.97434082 67.50792236 12.56586914 68.24631348 12.14501953 69.00708008 C11.16513154 70.71258662 10.09107329 72.36339006 9 74 C9.25937343 76.68019207 9.91716683 77.89805148 11.625 80 C13 82 13 82 12.8125 84.0625 C11.0929664 88.16292627 8.03788407 92.98105796 4 95 C1.1875 95.375 1.1875 95.375 -2 95 C-4.9271127 92.53856432 -6.88082786 90.17875822 -9 87 C-9.66 87 -10.32 87 -11 87 C-10.52651586 82.8333396 -9.95303159 80.07115285 -7 77 C-6.34 77 -5.68 77 -5 77 C-11.93 65.12 -11.93 65.12 -19 53 C-28.31332881 56.72533152 -32.61671199 63.32302793 -36.87109375 72.16796875 C-37.91942855 74.79787439 -38.55643835 77.21116989 -39 80 C-39.99 79.34 -40.98 78.68 -42 78 C-43.32 79.98 -44.64 81.96 -46 84 C-46.66 83.67 -47.32 83.34 -48 83 C-39.48379604 67.98539845 -30.877886 53.03792778 -22.0390625 38.21044922 C-14.52262284 25.57102117 -7.25490759 12.79085697 0 0 Z " fill="#FBD700" transform="translate(117,40)"/>
<path d="M0 0 C3.78107631 1.26035877 4.15557633 2.45485144 6.13671875 5.83984375 C6.71357422 6.82017578 7.29042969 7.80050781 7.88476562 8.81054688 C8.47966797 9.84244141 9.07457031 10.87433594 9.6875 11.9375 C10.29400391 12.96552734 10.90050781 13.99355469 11.52539062 15.05273438 C16 22.71846 16 22.71846 16 25 C15.38125 25.5775 14.7625 26.155 14.125 26.75 C11.43934841 29.27699967 11.43934841 29.27699967 10 35 C0.43 35 -9.14 35 -19 35 C-19 22.58841609 -14.9558423 13.90685026 -6.3125 5.0625 C-4.25958165 3.06621388 -2.40987881 1.60658587 0 0 Z " fill="#1D1B00" transform="translate(96,92)"/>
<path d="M0 0 C8.49747467 2.57499232 13.88222738 9.47570639 18 17 C20.97733791 23.48074681 21 27.43380489 21 35 C11.43 35 1.86 35 -8 35 C-8.66 32.69 -9.32 30.38 -10 28 C-10.556875 27.46375 -11.11375 26.9275 -11.6875 26.375 C-12.120625 25.92125 -12.55375 25.4675 -13 25 C-12.72288536 19.81399749 -9.68661722 15.68841568 -7.0625 11.375 C-6.60681641 10.611875 -6.15113281 9.84875 -5.68164062 9.0625 C-3.84442803 5.99599581 -1.98341392 2.97512088 0 0 Z " fill="#1D1A00" transform="translate(138,92)"/>
<path d="M0 0 C4.62 0 9.24 0 14 0 C16.19993243 3.7640635 18.38520489 7.53537608 20.5625 11.3125 C21.19091797 12.38435547 21.81933594 13.45621094 22.46679688 14.56054688 C23.05654297 15.58857422 23.64628906 16.61660156 24.25390625 17.67578125 C24.80377197 18.62364502 25.3536377 19.57150879 25.92016602 20.5480957 C27 23 27 23 26 26 C16.35755638 30.91575557 4.76131773 31.64038257 -5.625 28.625 C-8.53765577 27.66701687 -10.40191269 26.73205821 -13 25 C-11.47451155 19.52567572 -8.85770034 15.06605883 -5.9375 10.25 C-5.0295437 8.73461712 -4.12197294 7.21900315 -3.21484375 5.703125 C-2.81386475 5.03958008 -2.41288574 4.37603516 -1.99975586 3.69238281 C-1.28783421 2.48724463 -0.62596972 1.25193945 0 0 Z " fill="#1D1A00" transform="translate(111,138)"/>
<path d="M0 0 C0.33 0 0.66 0 1 0 C1.33 63.03 1.66 126.06 2 191 C-188.74 190.67 -379.48 190.34 -576 190 C-576 189.67 -576 189.34 -576 189 C-385.92 189 -195.84 189 0 189 C0 126.63 0 64.26 0 0 Z " fill="#2D2D2B" transform="translate(588,10)"/>
<path d="M0 0 C2.64 0 5.28 0 8 0 C10.81147122 2.81147122 10.25363278 4.59107169 10.25878906 8.52929688 C10.2622937 9.19937271 10.26579834 9.86944855 10.26940918 10.55982971 C10.27822732 12.77957452 10.27237724 14.99900183 10.265625 17.21875 C10.26697163 18.75809796 10.26891215 20.2974455 10.27142334 21.83679199 C10.27437471 25.06490117 10.27007661 28.29289976 10.26074219 31.52099609 C10.24934757 35.66405794 10.25590699 39.80686069 10.26788712 43.94991302 C10.27510542 47.12915 10.27281794 50.30832528 10.26763153 53.48756409 C10.26629495 55.01542695 10.26794306 56.54329536 10.27259064 58.07115173 C10.27765547 60.20448699 10.26994669 62.33739945 10.25878906 64.47070312 C10.25640228 66.29365906 10.25640228 66.29365906 10.25396729 68.15344238 C10 71 10 71 8 73 C5.36 73 2.72 73 0 73 C0 48.91 0 24.82 0 0 Z " fill="#F4D007" transform="translate(250,67)"/>
<path d="M0 0 C0.99 0 1.98 0 3 0 C3.05534912 1.08941895 3.11069824 2.17883789 3.16772461 3.30126953 C3.37487278 7.36053496 3.5865483 11.41955404 3.79956055 15.47851562 C3.89095697 17.23203282 3.9811415 18.98561364 4.07006836 20.73925781 C4.19843621 23.26645507 4.33122563 25.79338805 4.46484375 28.3203125 C4.50343002 29.09867462 4.5420163 29.87703674 4.58177185 30.6789856 C4.80731055 34.8567796 5.26264994 38.87449592 6 43 C6.06388388 44.95740193 6.08638169 46.91670147 6.0625 48.875 C6.05347656 49.84179688 6.04445313 50.80859375 6.03515625 51.8046875 C6.02355469 52.52914062 6.01195312 53.25359375 6 54 C3.36 54 0.72 54 -2 54 C-2.87117085 51.03928167 -3.07643099 48.55680608 -2.9140625 45.48046875 C-2.87023437 44.62259766 -2.82640625 43.76472656 -2.78125 42.88085938 C-2.7296875 41.99205078 -2.678125 41.10324219 -2.625 40.1875 C-2.58117187 39.31029297 -2.53734375 38.43308594 -2.4921875 37.52929688 C-2.29410481 33.85101143 -2.03793991 30.25528561 -1.49609375 26.609375 C-0.78568836 21.44075625 -0.63477846 16.2725917 -0.4375 11.0625 C-0.39431641 9.99708984 -0.35113281 8.93167969 -0.30664062 7.83398438 C-0.20125511 5.22276557 -0.09912912 2.61146254 0 0 Z " fill="#E8C70C" transform="translate(310,73)"/>
<path d="M0 0 C2.97 0 5.94 0 9 0 C11.41816166 2.41816166 10.18547019 8.68777819 10.1875 11.9375 C10.19974609 12.96552734 10.21199219 13.99355469 10.22460938 15.05273438 C10.22750977 16.52516602 10.22750977 16.52516602 10.23046875 18.02734375 C10.23457764 18.93218506 10.23868652 19.83702637 10.24291992 20.76928711 C10 23 10 23 8 25 C5.36 25 2.72 25 0 25 C0 16.75 0 8.5 0 0 Z " fill="#F1CE0C" transform="translate(535,68)"/>
<path d="M0 0 C3.8425303 0.72047443 5.45767292 1.57152696 8 4.5625 C8.71730941 7.3854596 8.71730941 9.7395404 8 12.5625 C5.45767292 15.55347304 3.8425303 16.40452557 0 17.125 C-4.10389613 16.35551948 -5.53959272 14.89128632 -8 11.5625 C-8.625 8.5625 -8.625 8.5625 -8 5.5625 C-5.53959272 2.23371368 -4.10389613 0.76948052 0 0 Z " fill="#1D1A00" transform="translate(118,118.4375)"/>
<path d="M0 0 C0.66 0 1.32 0 2 0 C2 1.98 2 3.96 2 6 C1.34 6 0.68 6 0 6 C0 25.47 0 44.94 0 65 C-0.33 65 -0.66 65 -1 65 C-1.02312684 56.67271053 -1.04091683 48.34543437 -1.05181217 40.01812077 C-1.05704026 36.15179882 -1.06413654 32.28549879 -1.07543945 28.41918945 C-1.086271 24.69096599 -1.0922774 20.96276366 -1.09487724 17.23452568 C-1.09673101 15.80910344 -1.10035071 14.38368241 -1.10573006 12.95826912 C-1.11294393 10.96836592 -1.11340808 8.97844166 -1.11352539 6.98852539 C-1.115746 5.85379288 -1.11796661 4.71906036 -1.12025452 3.54994202 C-1 1 -1 1 0 0 Z " fill="#2B2A23" transform="translate(364,96)"/>
<path d="M0 0 C3.09164355 4.02363355 5.66175789 8.26739464 8.25 12.625 C8.72179687 13.40101562 9.19359375 14.17703125 9.6796875 14.9765625 C10.12054688 15.7190625 10.56140625 16.4615625 11.015625 17.2265625 C11.42071289 17.90283691 11.82580078 18.57911133 12.24316406 19.27587891 C12.49291992 19.84483887 12.74267578 20.41379883 13 21 C12.67 21.66 12.34 22.32 12 23 C10.68 23 9.36 23 8 23 C7.38125 21.205625 7.38125 21.205625 6.75 19.375 C5.68635813 16.4829071 4.71619899 14.60768683 2.875 12.0625 C0.43794733 8.08198064 0.20401303 4.59029316 0 0 Z " fill="#E5D200" transform="translate(149,93)"/>
<path d="M0 0 C0.99 0 1.98 0 3 0 C3.69037426 9.02417777 4.15178302 17.94361322 4 27 C3.67 27 3.34 27 3 27 C3 23.37 3 19.74 3 16 C2.01 16 1.02 16 0 16 C0 10.72 0 5.44 0 0 Z " fill="#C7AD1E" transform="translate(310,73)"/>
<path d="M0 0 C1.32 0.66 2.64 1.32 4 2 C2.44499019 5.81684226 -0.03595495 8.19195732 -3 11 C-3.66 10.34 -4.32 9.68 -5 9 C-3.35 6.03 -1.7 3.06 0 0 Z " fill="#EAD500" transform="translate(85,95)"/>
<path d="M0 0 C0.99 0.33 1.98 0.66 3 1 C3.33 2.65 3.66 4.3 4 6 C3.38125 5.505 2.7625 5.01 2.125 4.5 C0.16119096 2.80777227 0.16119096 2.80777227 -2 3 C-2.2475 3.5775 -2.495 4.155 -2.75 4.75 C-4.16683317 7.3002997 -5.87627537 9.01785701 -8 11 C-8.99 10.67 -9.98 10.34 -11 10 C-9.73232923 8.70522938 -8.46073776 7.41429661 -7.1875 6.125 C-6.47980469 5.40570313 -5.77210937 4.68640625 -5.04296875 3.9453125 C-3 2 -3 2 0 0 Z " fill="#121000" transform="translate(96,92)"/>
<path d="M0 0 C2.64 0.33 5.28 0.66 8 1 C6.1875 3 6.1875 3 4 5 C3.01 5 2.02 5 1 5 C1 4.34 1 3.68 1 3 C0.34 2.67 -0.32 2.34 -1 2 C-0.67 1.34 -0.34 0.68 0 0 Z " fill="#ECD000" transform="translate(112,134)"/>
<path d="M0 0 C0.66 0 1.32 0 2 0 C2 1.98 2 3.96 2 6 C1.34 6 0.68 6 0 6 C0 7.98 0 9.96 0 12 C-0.33 12 -0.66 12 -1 12 C-1.02687279 10.18757948 -1.04633715 8.37504767 -1.0625 6.5625 C-1.07410156 5.55316406 -1.08570313 4.54382813 -1.09765625 3.50390625 C-1 1 -1 1 0 0 Z " fill="#4D4B40" transform="translate(364,96)"/>
<path d="M0 0 C0.66 0 1.32 0 2 0 C1.46930939 3.82097239 0.50298434 6.06171403 -2 9 C-1.125 1.125 -1.125 1.125 0 0 Z " fill="#F6E200" transform="translate(80,105)"/>
<path d="M0 0 C1.32 0.66 2.64 1.32 4 2 C2.25 5.875 2.25 5.875 0 7 C-1.125 2.25 -1.125 2.25 0 0 Z " fill="#E1CB00" transform="translate(85,95)"/>
</svg>
