<?xml version="1.0" standalone="no"?>
<!DOCTYPE svg PUBLIC "-//W3C//DTD SVG 20010904//EN"
 "http://www.w3.org/TR/2001/REC-SVG-20010904/DTD/svg10.dtd">
<svg version="1.0" xmlns="http://www.w3.org/2000/svg"
 width="432.000000pt" height="139.000000pt" viewBox="0 0 432.000000 139.000000"
 preserveAspectRatio="xMidYMid meet">

<g transform="translate(0.000000,139.000000) scale(0.100000,-0.100000)"
fill="#000000" stroke="none">
<path d="M1493 1318 c-56 -12 -107 -61 -125 -118 -18 -63 -19 -955 0 -1017 17
-56 54 -99 100 -115 51 -18 323 -18 374 0 44 16 83 59 99 110 7 22 13 151 16
325 l5 287 -151 0 -151 0 0 -115 0 -115 30 0 30 0 0 -124 c0 -140 -4 -149 -66
-144 -31 2 -40 8 -45 28 -4 14 -7 180 -7 370 0 190 3 356 7 370 5 20 14 26 45
28 59 5 66 -7 66 -115 l0 -94 118 3 117 3 -2 136 c-1 74 -7 155 -13 179 -17
62 -63 105 -128 119 -63 13 -259 13 -319 -1z"/>
<path d="M3746 1319 c-52 -12 -90 -36 -108 -68 -33 -56 -38 -129 -38 -561 0
-533 5 -567 99 -612 36 -17 68 -22 170 -26 138 -5 232 8 271 36 14 10 36 40
50 68 l25 49 0 475 c0 528 -2 548 -61 599 -19 17 -53 33 -84 40 -60 13 -268
13 -324 0z m214 -255 c6 -15 10 -172 10 -374 0 -202 -4 -359 -10 -374 -8 -22
-16 -26 -49 -26 -30 0 -43 5 -51 19 -6 13 -10 151 -10 381 0 230 4 368 10 381
8 14 21 19 51 19 33 0 41 -4 49 -26z"/>
<path d="M97 1313 c-4 -3 -7 -287 -7 -630 l0 -623 110 0 110 0 2 332 c3 313 4
328 16 258 8 -41 38 -189 68 -329 30 -139 54 -255 54 -257 0 -2 63 -4 140 -4
l140 0 0 630 0 630 -110 0 -110 0 -1 -287 c-1 -305 -4 -311 -39 -108 -11 66
-32 182 -47 258 l-25 137 -147 0 c-81 0 -151 -3 -154 -7z"/>
<path d="M820 690 l0 -630 235 0 235 0 0 120 0 120 -110 0 -111 0 3 148 3 147
83 3 83 3 -3 117 -3 117 -80 1 -80 2 -3 121 -3 121 111 0 110 0 0 120 0 120
-235 0 -235 0 0 -630z"/>
<path d="M2040 690 l0 -630 125 0 125 0 0 255 0 255 40 0 c63 0 67 -13 73
-250 3 -113 10 -217 16 -233 l11 -27 125 0 c69 0 125 3 125 8 0 4 -5 23 -10
42 -6 19 -14 132 -19 250 -8 236 -17 275 -71 307 l-28 16 38 36 c51 49 60 88
60 272 0 235 -26 294 -140 318 -28 6 -145 11 -260 11 l-210 0 0 -630z m358
261 c3 -139 2 -141 -65 -141 l-43 0 0 136 0 135 53 -3 52 -3 3 -124z"/>
<path d="M2740 690 l0 -630 125 0 125 0 0 630 0 630 -125 0 -125 0 0 -630z"/>
<path d="M3042 1203 l3 -118 63 0 62 0 0 -512 0 -513 130 0 130 0 0 513 0 512
62 0 63 0 3 118 3 117 -261 0 -261 0 3 -117z"/>
</g>
</svg>
